<svg version="1.1" id="Layer_1" xmlns="http://www.w3.org/2000/svg" x="0" y="0" viewBox="-193 366.9 48.8 56.3" ><path className="st0" d="M-169.8 388.2h-10.6c-.4 0-.8-.3-.8-.8s.3-.8.8-.8h10.6c.4 0 .8.3.8.8s-.4.8-.8.8zM-167 392.1h-13.4c-.4 0-.8-.3-.8-.8s.3-.8.8-.8h13.4c.4 0 .8.3.8.8s-.4.8-.8.8zM-167 396.1h-13.4c-.4 0-.8-.3-.8-.8s.3-.8.8-.8h13.4c.4 0 .8.3.8.8s-.4.8-.8.8zM-167 400.1h-13.4c-.4 0-.8-.3-.8-.8s.3-.8.8-.8h13.4c.4 0 .8.3.8.8s-.4.8-.8.8z"/><path class="st1" d="M-158.3 376.5c-.2-.8-.9-1.4-2.1-1.6v4.3c1 .1 1.8.5 2.5 1.1.6.6.9 1.3.8 2.1 0 .9-.4 1.7-1 2.3-.6.6-1.4 1-2.3 1.1v.7c0 .2-.1.3-.2.4-.1.1-.3.2-.4.2-.2 0-.3-.1-.4-.2-.1-.1-.2-.3-.2-.4v-.7c-.7-.1-1.4-.3-2-.7-.6-.4-1.1-1-1.3-1.8 0-.2 0-.3.1-.5.1-.1.2-.3.4-.3s.3 0 .5.1c.1.1.2.2.3.4.2.8.9 1.4 2.1 1.6v-4.3c-1 0-1.9-.4-2.5-1.1-.6-.6-.8-1.3-.8-2.1 0-.9.4-1.7 1-2.3.6-.6 1.4-1 2.3-1.1v-.7c0-.2.1-.3.2-.4.1-.1.3-.2.4-.2.2 0 .3.1.4.2.1.1.2.3.2.4v.7c.7.1 1.4.3 2 .7.7.4 1.1 1 1.3 1.7 0 .2 0 .3-.1.5-.1.1-.2.2-.4.3-.2 0-.3 0-.5-.1-.1 0-.2-.2-.3-.3zm-5 1.8c.4.4 1 .7 1.6.7v-4.2c-.6.1-1.1.4-1.5.8-.4.4-.6.9-.6 1.5.1.5.2.9.5 1.2zm4.6 2.8c-.4-.4-1-.7-1.6-.7v4.2c.6-.1 1.1-.4 1.5-.8.4-.4.6-.9.6-1.5-.1-.4-.2-.9-.5-1.2z"/><path d="M-148.8 423.1c-1.2 0-2.4-.5-3.3-1.4l-10.5-10.5c-.4-.4-.7-.8-.9-1.3-9 5.6-20.9 2.8-26.5-6.2-5.6-9-2.8-20.9 6.2-26.5 3.6-2.2 7.7-3.2 11.9-2.8.2 0 .4.2.6.4.1.2.1.5 0 .7-.5 1.3-.8 2.7-.8 4.1 0 .4.1.9.2 1.3 0 .2 0 .4-.2.6-.2.2-.4.2-.6.2a12 12 0 0 0-12.9 11.1c-.5 6.6 4.4 12.4 11.1 12.9s12.4-4.4 12.9-11.1c.1-1 0-2-.1-3 0-.2 0-.4.2-.6.1-.2.4-.3.6-.3h.1c1.8 0 3.5-.4 5.1-1.2.4-.2.8 0 1 .3 0 .1.1.1.1.2.9 4.8 0 9.7-2.5 13.8.5.2.9.5 1.3.9l10.5 10.5c1.8 1.8 1.9 4.7.1 6.6-1.1.9-2.4 1.4-3.6 1.3zm-14.4-15.1h.3c.2.1.4.3.4.5.1.6.4 1.2.9 1.6l10.5 10.6c1.2 1.2 3.2 1.2 4.5 0 1.2-1.2 1.2-3.2 0-4.5l-10.5-10.5c-.4-.4-1-.7-1.6-.9-.2-.1-.4-.2-.5-.5-.1-.2-.1-.5.1-.7 2.5-3.7 3.6-8.1 3-12.5-1.3.6-2.7.9-4.2.9.8 7.4-4.5 14.1-11.9 14.9-7.4.8-14.1-4.5-14.9-11.9-.8-7.4 4.5-14.1 11.9-14.9.5-.1 1-.1 1.5-.1h.1v-.6c0-1.2.2-2.5.6-3.7-9.8-.4-18 7.2-18.4 17-.4 9.8 7.2 18 17 18.4 3.9.2 7.7-1 10.9-3.2 0 .2.2.1.3.1z" fill="#3095d2"/><path class="st1" d="M-161 392.1c-7 0-12.6-5.7-12.6-12.6s5.7-12.6 12.6-12.6c7 0 12.6 5.7 12.6 12.6 0 7-5.6 12.7-12.6 12.6zm0-23.7c-6.1 0-11.1 5-11.1 11.1s5 11.1 11.1 11.1 11.1-5 11.1-11.1-5-11.1-11.1-11.1z"/></svg>